<?xml version="1.0" encoding="utf-8"?>
<svg version="1.0" xmlns="http://www.w3.org/2000/svg" width="512.000000pt" height="512.000000pt" viewBox="0 0 512.000000 512.000000" preserveAspectRatio="xMidYMid meet">
  <g transform="translate(0.000000,512.000000) scale(0.100000,-0.100000)" fill="#E8EAED" stroke="none">
    <path d="M2345 4304 c-499 -49 -885 -175 -1219 -399 -322 -215 -574 -513 -702 -831 -179 -443 -187 -972 -20 -1450 252 -722 877 -1218 1718 -1363 202 -35 338 -44 567 -38 265 6 414 29 649 99 489 144 926 462 1187 863 224 344 336 780 305 1193 -27 359 -42 454 -100 617 -234 657 -926 1154 -1795 1286 -124 19 -487 33 -590 23z m595 -129 c568 -90 1049 -334 1368 -696 611 -691 514 -1603 -231 -2171 -314 -240 -731 -402 -1182 -459 -128 -16 -480 -16 -610 0 -801 100 -1429 501 -1716 1096 -190 393 -187 808 7 1200 139 280 397 549 707 735 275 164 595 264 1007 314 88 10 549 -3 650 -19z"/>
    <path d="M2255 3868 c-288 -32 -629 -143 -848 -274 -193 -117 -388 -300 -485 -456 -113 -183 -162 -355 -162 -573 0 -273 83 -495 270 -721 169 -204 465 -397 775 -504 259 -89 468 -124 745 -124 366 0 664 69 975 224 176 88 304 178 425 300 300 300 411 680 310 1062 -144 549 -766 985 -1522 1067 -114 13 -369 12 -483 -1z m412 -102 c1 -1 -9 -32 -22 -69 -38 -103 -31 -137 26 -137 34 0 44 13 73 96 13 38 27 76 30 85 6 15 15 15 94 2 548 -88 1034 -404 1223 -798 74 -153 94 -240 93 -415 0 -164 -21 -263 -84 -401 l-12 -27 -74 35 c-79 37 -109 37 -123 0 -14 -38 0 -57 71 -93 l70 -35 -18 -27 c-40 -64 -133 -169 -203 -230 -188 -164 -418 -283 -687 -357 -212 -58 -310 -70 -581 -70 -159 0 -246 4 -253 11 -7 7 0 33 25 89 39 84 40 119 4 130 -48 15 -65 -1 -110 -104 -50 -115 -24 -109 -219 -59 -209 53 -403 140 -585 262 -93 62 -331 288 -321 305 3 5 20 12 38 15 56 10 98 42 98 74 0 56 -26 63 -124 31 -36 -12 -71 -19 -79 -16 -20 8 -73 112 -106 213 -55 163 -63 329 -25 496 17 74 21 76 83 58 19 -5 70 -14 113 -20 68 -10 83 -9 104 5 28 18 32 55 7 77 -10 8 -45 18 -78 22 -90 10 -165 28 -165 40 0 6 20 46 44 88 229 403 747 682 1350 728 88 6 314 4 323 -4z"/>
    <path d="M1689 3459 c-6 -12 -9 -28 -6 -38 2 -9 127 -198 277 -421 l273 -405 -2 -70 c-3 -82 17 -148 61 -212 16 -24 24 -43 18 -43 -6 0 -59 -43 -118 -95 -59 -52 -168 -141 -242 -197 -105 -81 -136 -109 -138 -129 -3 -30 20 -59 47 -59 36 0 451 330 503 400 l20 28 60 -28 c33 -16 79 -32 102 -35 31 -6 75 -33 176 -108 171 -126 490 -339 621 -413 76 -43 112 -58 143 -58 37 -1 41 1 44 26 4 35 -107 213 -332 532 l-170 241 -1 90 c0 77 -5 99 -26 143 l-26 52 229 177 c147 115 231 186 235 201 7 28 -21 62 -51 62 -12 0 -125 -81 -256 -183 -129 -100 -242 -181 -251 -179 -9 1 -40 27 -70 56 -64 61 -120 82 -219 79 l-65 -1 -100 87 c-150 130 -184 157 -436 346 -244 184 -275 200 -300 154z m348 -303 c54 -41 228 -192 336 -293 l48 -44 -27 -32 c-15 -18 -33 -46 -40 -63 -28 -67 -41 -57 -196 165 -226 322 -243 358 -121 267z m659 -366 c32 -12 83 -59 100 -93 21 -39 14 -105 -16 -146 -74 -105 -274 -101 -347 8 -29 43 -31 113 -4 157 46 75 170 109 267 74z m224 -312 c0 -60 -13 -95 -53 -136 -115 -121 -359 -116 -471 8 -43 47 -72 138 -60 182 l9 28 35 -47 c22 -30 56 -59 90 -78 48 -26 65 -29 135 -30 63 0 91 5 133 24 59 27 115 85 133 140 l12 36 18 -40 c10 -22 19 -61 19 -87z m213 -418 c156 -245 175 -276 155 -264 -185 112 -521 335 -533 354 -3 4 21 17 53 29 31 11 77 39 102 61 26 23 53 39 65 37 14 -1 61 -66 158 -217z"/>
  </g>
</svg>