<?xml version="1.0" encoding="utf-8"?>
<svg xmlns="http://www.w3.org/2000/svg" viewBox="0 0.0009 937.9922 882.1053" width="937.992px" height="882.105px" preserveAspectRatio="none"><g id="object-0" transform="matrix(0.9999999999999999, 0, 0, 0.9999999999999999, 0, 0)"><path d="M302.611,580.556c15.548,-0.398 15.502,0.194 30.996,-0.278c7.84,-0.239 7.351,-2.344 16.594,-12.742c7.809,-8.784 6.295,-11.388 6.355,-30.74c0.182,-59.109 -0.487,-59.48 2.476,-64.502c1.728,-2.929 33.961,-35.685 35.672,-37.361c10.253,-10.042 10.242,-11.372 20.328,-11.441c34.798,-0.238 34.961,0.261 36.184,1.321c2.049,1.775 1.89,9.927 1.873,10.804c-0.45,23.034 0.118,129.425 0.006,134.906c-0.259,12.648 -0.178,12.59 -0.2,25.298c-0.06,35.06 2.931,44.05 -10.495,55.291c-12.002,10.049 -10.835,11.233 -18.676,18.076c-15.122,13.198 -55.253,-5.373 -65.095,-11.216c-1.049,-0.623 -8.244,-4.894 -5.25,-14.316c2.605,-8.198 57.279,-56.548 59.221,-61.736c1.675,-4.476 0.294,-35.51 1.125,-53.655c0.502,-10.968 9.296,-7.548 12.147,-19.666c6.864,-29.176 -26.882,-30.44 -31.584,-11.439c-1.086,4.387 -1.128,4.56 -0.846,56.489c0.116,21.319 1.645,22.682 -6.766,30.649c-19.829,18.785 -48.716,51.604 -58.552,54.368c-12.021,3.378 -27.252,-8.128 -33.608,-15.041c-17.336,-18.856 -17.755,-18.438 -19.253,-20.085c-7.274,-8 -7.686,-19.178 -5.844,-21.28c1.642,-1.874 4.148,-1.639 33.191,-1.705Z" style="fill: rgb(244, 244, 244);"/><path d="M623.021,580.571c30.324,-0.052 37.711,-0.468 39.401,1.128c2.484,2.345 1.236,15.063 -5.98,22.242c-2.827,2.812 -2.941,2.645 -5.675,5.6c-1.338,1.446 -18.882,25.894 -38.834,29.294c-10.693,1.822 -15.207,-4.331 -50.99,-39.96c-1.352,-1.346 -16.552,-16.48 -16.899,-16.834c-5.988,-6.114 -4.232,-7.308 -4.49,-45.256c-0.239,-35.241 1.946,-42.457 -7.257,-49.49c-11.236,-8.587 -33.632,3.246 -24.155,24.033c4.333,9.505 11.917,6.827 12.19,19.807c0.983,46.773 -2.404,48.313 4.667,55.934c3.5,3.772 50.933,50.903 52.905,53.839c9.073,13.511 -7.484,19.424 -10.49,20.881c-12.249,5.936 -37.966,14.683 -50.907,11.495c-9.435,-2.325 -14.057,-10.187 -18.479,-14.251c-16.648,-15.301 -18.177,-15.953 -17.983,-35.107c0.189,-18.654 -0.52,-194.675 0.305,-196.553c1.944,-4.426 2.928,-3.719 7.746,-3.783c35.506,-0.469 36.287,-0.077 39.083,1.328c5.038,2.53 21.135,20.006 22.849,21.867c4.904,5.324 4.723,5.46 17.8,18.738c9.914,10.067 8.254,11.508 8.186,31.93c-0.19,56.791 -0.303,56.8 0.207,61.711c0.988,9.504 15.733,20.014 15.762,20.027c2.276,0.999 3.01,1.322 31.038,1.381Z" style="fill: rgb(244, 244, 244);"/><path d="M611.875,468.106c-17.241,-1.694 -17.769,-2.441 -23.895,-8.736c-23.743,-24.401 -43.402,-43.485 -45.695,-46.78c-3.751,-5.39 -1.344,-8.401 15.925,-24.925c11.501,-11.004 11.742,-10.685 23.276,-21.646c26.62,-25.297 27.841,-24.535 29.221,-29.021c0.564,-1.833 -0.112,-48.837 0.178,-58.797c0.239,-8.209 5.22,-10.537 16.953,-18.036c13.286,-8.49 15.183,-4.595 26.21,6.712c15.333,15.723 15.564,15.475 16.771,16.953c2.487,3.048 9.177,7.813 9.266,36.553c0.096,31.12 -0.998,31.053 -1.448,33.626c-2.379,13.583 -6.099,11.611 -24.893,27.987c-13.395,11.672 -15.393,13.044 -16.838,14.037c-7.03,4.83 -11.538,1.675 -19.908,4.929c-17.436,6.779 -12.981,32.953 6.08,33.574c14.08,0.458 18.71,-13.026 18.86,-13.33c3.679,-7.484 4.355,-7.004 10.938,-12.217c17.188,-13.613 19.853,-16.003 21.503,-17.483c12.058,-10.814 14.257,-9.43 18.074,-20.925c0.902,-2.715 0.808,-3.448 3.688,-3.334c2.38,0.094 2.017,0.823 3.672,2.496c0.234,0.236 1.533,1.549 2.967,2.911c3.112,2.953 4.232,3 7.555,6.581c9.86,10.627 10.088,23.295 10.128,25.489c0.493,27.388 -1.282,27.723 -6.494,32.113c-20.7,17.436 -20.751,17.328 -42.499,33.451c-8.634,6.4 -9.824,0.899 -59.593,-2.18Z" style="fill: rgb(244, 244, 244);"/><path d="M253.662,334.442c-0.047,-23.122 -0.306,-26.788 1.949,-36.366c2.886,-12.257 9.221,-13.979 15.017,-18.347c2.799,-2.109 20.469,-21.889 21.701,-22.665c1.753,-1.104 6.701,-4.219 23.525,10.834c6.942,6.212 5.543,8.854 5.623,24.387c0.087,16.888 -0.1,16.851 -0.098,33.722c0.001,10.667 -0.618,11.572 6.104,17.37c5.863,5.057 30.56,28.053 30.748,28.231c27.345,25.991 27.895,25.488 31.179,30.496c5.203,7.935 -0.127,10.831 -13.528,25.254c-1.382,1.487 -1.315,1.477 -2.704,2.921c-27.581,28.655 -29.071,30.294 -30.449,31.516c-8.649,7.669 -26.349,5.33 -70.906,11.094c-8.32,1.076 -9.223,-2.077 -19.585,-9.451c-9.858,-7.016 -14.027,-10.692 -23.526,-18.337c-12.547,-10.099 -14.712,-10.019 -14.779,-20.738c-0.174,-28.042 -1.601,-36.312 12.223,-48.452c9.26,-8.132 9.214,-9.563 9.559,-9.586c0.978,-0.064 1.909,0.513 2.775,0.974c2.016,1.073 1.402,1.557 2.033,3.79c3.06,10.821 7.835,10.845 30.945,31.076c9.694,8.486 9.737,8.405 10.563,9.159c7.44,6.78 6.802,7.297 12.299,15.76c8.899,13.701 34.18,6.936 32.579,-11.072c-1.682,-18.909 -23.432,-16.445 -26.899,-17.621c-6.17,-2.092 -21.189,-16.206 -28.077,-22.072c-2.378,-2.025 -2.51,-1.769 -4.985,-3.672c-15.006,-11.542 -13.256,-13.933 -13.287,-38.202Z" style="fill: rgb(244, 244, 244);"/><path d="M393.85,314.765c0.081,4.709 -0.537,9.538 4.418,16.79c5.712,8.36 26.906,9.058 28.235,-11.159c0.669,-10.175 -4.986,-15.71 -6.001,-16.703c-5.742,-5.62 -25.995,-17.403 -27.473,-25.56c-0.554,-3.058 -0.264,-39.668 -0.612,-87.031c-0.068,-9.281 -0.037,-10.498 8.404,-14.383c10.565,-4.861 15.504,-5.652 28.462,2.872c1.203,0.791 0.994,1.03 14.12,11.156c11.026,8.507 9.685,10.556 9.691,45.323c0.002,12.806 0.029,159.97 0.006,160.079c-1.353,6.404 -3.434,5.055 -9.951,5.017c-29.4,-0.171 -29.854,0.1 -33.091,-2.778c-1.659,-1.476 -1.299,-1.783 -19.081,-20.16c-5.642,-5.831 -45.387,-42.371 -48.053,-47.099c-2.867,-5.083 -0.534,-58.465 -1.846,-63.998c-2.547,-10.739 -29.095,-24.061 -30.361,-28.076c-1.561,-4.95 3.573,-7.027 11.007,-12.261c1.174,-0.826 1.41,-0.408 15.243,-9.469c2.255,-1.477 11.682,-7.652 30.466,-14.411c6.999,-2.518 6.391,4.807 6.395,4.963c0.151,5.626 -0.319,5.62 0.008,70.345c0.072,14.197 6.362,11.283 16.889,24.547c3.748,4.722 2.983,6.696 3.124,11.992Z" style="fill: rgb(244, 244, 244);"/><path d="M539.882,205.166c-0.234,69.032 0.425,72.719 -1.489,75.692c-1.682,2.612 -9.963,9.893 -12.771,12.481c-10.101,9.312 -15.693,10.238 -18.339,18.436c-4.487,13.9 4.639,27.108 17.304,25.116c9.289,-1.461 16.688,-9.89 14.486,-22.191c-1.391,-7.766 -1.288,-8.615 7.666,-17.212c10.412,-9.996 12.108,-9.451 12.486,-16.415c0.117,-2.151 -0.014,-75.592 0.011,-75.746c0.774,-4.695 6.682,-2.32 7.241,-2.095c2.613,1.05 25.103,11.35 25.106,11.352c2.255,1.199 5.808,3.087 26.543,17.735c7.041,4.974 2.265,7.493 -0.325,9.804c-21.104,18.839 -26.76,16.973 -27.329,27.721c-0.686,12.944 1.286,56.633 -1.577,61.582c-2.993,5.173 -49.211,46.278 -63.572,62.617c-7.05,8.02 -8.195,7.13 -23.154,7.109c-14.608,-0.021 -20.016,0.595 -21.563,-2.535c-1.291,-2.614 -0.301,-46.816 -0.63,-103.528c-0.096,-16.61 0.008,-72.398 0.02,-78.694c0.025,-13.165 -2.824,-17.333 11.189,-27.736c16.132,-11.977 18.017,-12.821 19.769,-13.605c3.585,-1.605 10.054,-4.874 25.306,4.24c4.515,2.698 3.663,7.221 3.621,25.871Z" style="fill: rgb(244, 244, 244);"/><path d="M549.693,788.669c-1.73,0.386 -18.823,4.203 -21.964,2.962c-0.492,-0.194 -0.597,-0.88 -0.966,-1.258c-2.52,-2.585 -1.284,-3.04 -0.119,-6.484c6.828,-20.18 7.803,-20.979 9.293,-22.198c3.394,-2.778 31.888,-6.271 70.208,-22.562c31.338,-13.323 36.869,-17.792 64.897,-36.156c10.971,-7.188 40.773,-32.152 55.056,-48.908c0.016,-0.019 25.363,-27.306 41.274,-54.879c2.296,-3.98 11.802,-17.132 26.271,-54.283c1.747,-4.486 2.566,-9.015 6.088,-19.466c3.465,-10.28 5.786,-27.55 8.81,-30.768c1.403,-1.493 27.185,-10.418 27.972,-10.213c0.397,0.104 2.655,0.693 2.402,4.532c-0.16,2.425 -3.376,17.875 -3.699,19.423c-1.213,5.827 -12.923,46.936 -19.477,61.553c-28.818,64.262 -49.592,81.736 -60.494,96.231c-4.326,5.751 -30.174,32.049 -42.415,41.891c-18.164,14.603 -33.204,26.908 -63.899,43.518c-49.299,26.677 -92.804,35.399 -99.24,37.063Z" style="fill: rgb(244, 244, 244);"/><path d="M234.574,677.961c18.886,17.853 33.076,28.76 63.093,45.936c30.781,17.614 68.38,28.35 78.213,31.56c10.249,3.346 21.967,2.938 24.783,9.15c0.586,1.292 0.051,1.478 5.81,16.753c2.127,5.642 3.13,10.269 -5.56,9.511c-5.477,-0.478 -18.021,-3.655 -19.571,-4.047c-7.877,-1.995 -8.099,-1.057 -19.798,-5.23c-11.943,-4.26 -12.44,-2.865 -49.95,-18.494c-2.011,-0.838 -18.401,-8.63 -31.238,-15.905c-2.679,-1.518 -25.333,-15.556 -25.868,-15.916c-9.195,-6.174 -8.988,-6.359 -17.595,-13.238c-9.142,-7.307 -39.494,-28.46 -78.13,-79.69c-0.438,-0.58 -14.086,-20.537 -21.33,-34.427c-4.541,-8.709 -5.445,-8.99 -11.182,-22.445c-11.308,-26.52 -15.002,-35.103 -25.282,-78.567c-0.258,-1.093 -2.9,-12.261 -2.529,-13.806c0.106,-0.44 0.869,-3.621 4.667,-3.204c0.597,0.065 19.795,6.365 21.818,7.306c7.874,3.661 3.034,19.421 25.421,71.912c10.325,24.209 31.681,58.411 51.906,80.546c15.449,16.908 15.345,16.957 32.323,32.297Z" style="fill: rgb(244, 244, 244);"/><path d="M804.019,353.772c-3.337,-11.375 -16.751,-72.233 -71.263,-134.672c-17.388,-19.917 -22.323,-24.405 -42.625,-41.636c-21.567,-18.306 -53.882,-37.674 -72.465,-45.969c-40.438,-18.049 -49.612,-18.421 -65.338,-23.473c-7.659,-2.461 -7.401,-3.837 -12.529,-21.243c-2.19,-7.434 -3.381,-11.64 4.46,-10.347c5.713,0.942 5.732,0.625 11.322,2.196c5.971,1.678 23.68,6.069 50.887,16.073c5.483,2.016 27.975,11.876 30.134,13.019c8.785,4.65 17.544,8.812 25.398,13.749c2.322,1.459 24.945,15.68 28.79,18.603c2.296,1.745 21.262,16.163 28.213,22.445c28.011,25.315 37.948,39.072 43.912,45.98c21.015,24.342 43.941,64.097 53.957,89.435c15.913,40.253 19.501,64.749 20.096,67.348c0.148,0.647 1.564,6.837 -0.511,8.275c-2.072,1.436 -7.734,-1.683 -17.026,-4.095c-12.992,-3.372 -12.244,-5.592 -15.411,-15.688Z" style="fill: rgb(244, 244, 244);"/><path d="M152.029,301.195c-7.622,19.464 -9.523,18.729 -14.911,38.951c-2.203,8.269 -2.656,8.114 -4.44,16.513c-2.471,11.632 -6.016,10.467 -23.683,15.493c-0.843,0.24 -5.426,2.401 -7.612,0.421c-2.883,-2.612 -0.905,-3.197 -0.168,-7.03c3.695,-19.236 11.969,-66.417 53.215,-129.001c9.448,-14.336 10.307,-13.661 20.126,-27.692c0.535,-0.765 12.704,-15.369 16.676,-19.589c23.576,-25.044 47.003,-42.318 52.048,-46.349c3.367,-2.69 36.62,-25.835 61.775,-36.971c2.942,-1.303 38.453,-18.361 78.957,-27.768c0.437,-0.102 0.447,0.036 5.546,-0.856c6.811,-1.192 10.613,-2.508 9.22,4.273c-0.996,4.849 -4.973,15.708 -5.466,17.053c-4.075,11.123 -7.312,8.29 -25.892,14.219c-58.425,18.643 -86.814,40.845 -103.273,51.447c-5.411,3.485 -25.732,20.541 -27.925,22.382c-12.884,10.814 -28.14,28.736 -30.407,31.398c-2,2.35 -8.527,7.561 -25.709,32.815c-0.241,0.354 -0.232,0.353 -13.207,21.225c-4.126,6.637 -13.742,26.71 -14.871,29.066Z" style="fill: rgb(244, 244, 244);"/><path d="M294.296,490.264c15.733,-1.414 32.38,-3.836 36.883,-2.393c4.045,1.297 3.338,6.038 3.303,23.633c-0.089,43.732 0.407,45.12 -1.556,47.197c-2.086,2.206 -11.198,1.692 -16.256,1.692c-21.029,-0 -56.235,0.336 -59.165,-0.16c-6.908,-1.172 -10.7,-11.563 -25.326,-26.069c-8.339,-8.271 -17.82,-11.908 -17.804,-42.339c0.015,-28.095 -0.055,-28.686 1.79,-29.616c3.385,-1.707 3.944,1.2 29.249,19.735c11.271,8.256 10.561,13.038 29.169,10.433c9.859,-1.38 9.825,-1.318 19.713,-2.113Z" style="fill: rgb(244, 244, 244);"/><path d="M642.815,490.639c24.788,2.475 26.578,4.687 36.195,-1.935c6.044,-4.161 21.309,-16.609 23.548,-18.168c12.252,-8.531 12.331,-10.76 15.347,-8.734c1.554,1.045 1.504,2.004 1.55,21.594c0.032,13.501 0.024,31.101 -8.253,40.299c-7.344,8.162 -18.536,17.132 -25.075,25.389c-7.461,9.42 -7.365,11.142 -18.121,11.259c-3.892,0.042 -63.352,0.246 -64.874,-0.046c-5.678,-1.087 -4.508,-3.588 -4.549,-45.986c-0.002,-1.789 -0.022,-21.977 0.086,-22.36c1.393,-4.972 4.402,-4.58 18.775,-3.769c2.036,0.115 2,0.434 25.371,2.456Z" style="fill: rgb(244, 244, 244);"/><path d="M452.069,43.771c-1.286,-0.023 -0.913,1.035 -2.187,1.012c-1.954,-0.035 -1.085,-1.136 -1.197,-1.073c-0.848,0.469 -0.543,4.33 -0.513,4.708c0.877,11.093 1.134,11.049 1.065,22.387c-0.18,29.541 0.262,32.216 -1.601,34.031c-2.054,2 -18.185,1.934 -20.21,0.011c-1.981,-1.881 -1.719,-8.73 -1.723,-17.172c-0.038,-83.27 -0.261,-83.524 0.884,-85.024c2.233,-2.925 4.271,-2.604 15.161,-2.558c7.849,0.033 8.474,1.749 13.071,9.481c1.341,2.255 14.222,23.92 16.934,28.085c13.641,20.947 11.391,22.424 13.217,23.583c0.513,0.325 1.208,-0.151 1.815,-0.143c0.504,0.006 1.108,0.5 1.501,0.184c1.606,-1.291 -0.269,-6.638 -0.257,-21.371c0.028,-35.159 0.042,-35.212 0.706,-36.93c1.488,-3.844 9.413,-2.913 14.85,-2.806c4.242,0.083 7.985,-0.091 8.595,5.98c0.293,2.919 0.076,64.658 0.057,70.28c-0.092,26.277 0.366,26.907 -2.317,29.101c-1.963,1.605 -16.837,1.483 -20.758,-0.402c-3.707,-1.782 -22.428,-35.159 -23.197,-36.514c-2.591,-4.564 -4.695,-4.799 -13.897,-24.849Z" style="fill: rgb(244, 244, 244);"/><path d="M809.714,432.82c-0.008,-10.896 0.186,-10.849 -0.145,-14.187c-0.798,-8.049 -0.807,-8.043 -0.81,-8.31c-0.162,-14.086 -1.24,-14.44 0.45,-16.259c2.368,-2.548 2.981,-0.794 18.752,3.136c2.817,0.702 22.715,6.608 39.345,11.164c2.261,0.619 23.429,6.419 28.179,8.03c9.72,3.296 9.833,2.79 19.62,5.818c11.443,3.54 20.012,4.224 20.334,4.308c4.161,1.084 2.09,4.782 1.643,5.044c-0.431,0.253 -4.654,0.683 -5.061,0.725c-2.057,0.21 -6.475,0.66 -24.964,6.677c-11.509,3.745 -11.628,3.194 -19.648,5.714c-2.421,0.76 -53.921,16.245 -73.439,20.967c-0.488,0.118 -5.193,1.256 -6.041,-1.691c-0.054,-0.189 1.697,-28.869 1.784,-31.134Z" style="fill: rgb(244, 244, 244);"/><path d="M495.489,800.602c-7.502,19.594 -16.268,49.128 -23.434,68.167c-1.627,4.324 -3.392,12.937 -4.002,13.334c-0.047,0.03 -4.237,-0.157 -4.268,-0.19c-1.368,-1.465 0.813,-2.201 -3.433,-13.608c-2.213,-5.945 -27.331,-85.528 -31.007,-95.509c-0.162,-0.44 -1.873,-5.085 -1.814,-5.573c0.053,-0.443 0.399,-3.315 4.223,-3.644c0.711,-0.061 54.441,0.166 59.175,0.186c1.94,0.008 13.047,-0.206 14.099,0.599c3.85,2.947 0.963,4.07 -9.538,36.238Z" style="fill: rgb(244, 244, 244);"/><path d="M0,427.88c9.324,-3.504 9.606,-2.401 19.055,-5.447c5.073,-1.635 72.701,-20.326 78.756,-22.293c9.729,-3.16 9.827,-2.659 19.675,-5.409c0.616,-0.172 6.662,-1.86 7.933,-1.005c4.585,3.085 -0.217,14.975 1.948,56.027c0.702,13.312 0.178,13.959 -0.572,14.886c-1.524,1.883 -1.629,2.101 -4.027,1.719c-7.236,-1.153 -80.032,-23.525 -86.966,-25.656c-24.207,-7.44 -25.905,-7.713 -28.224,-8.085c-3.981,-0.64 -4.819,0.675 -6.489,-2.205c-0.461,-0.795 -0.628,-1.736 -1.089,-2.531Z" style="fill: rgb(244, 244, 244);"/></g></svg>