<?xml version="1.0" encoding="UTF-8" standalone="no"?><!DOCTYPE svg PUBLIC "-//W3C//DTD SVG 1.1//EN" "http://www.w3.org/Graphics/SVG/1.1/DTD/svg11.dtd"><svg width="100%" height="100%" viewBox="0 0 919 825" version="1.1" xmlns="http://www.w3.org/2000/svg" xmlns:xlink="http://www.w3.org/1999/xlink" xml:space="preserve" xmlns:serif="http://www.serif.com/" style="fill-rule:evenodd;clip-rule:evenodd;stroke-linejoin:round;stroke-miterlimit:2;"><g><path d="M406.005,533.674c-12.181,-3.586 -16.158,-9.683 -14.662,-12.197c1.72,-2.889 2.462,-2.12 35.579,-22.035c10.722,-6.448 15.06,-5.373 14.792,-24.655c-0.13,-9.339 -40.196,-47.086 -44.064,-56.755c-1.913,-4.781 6.115,-46.278 7.057,-48.93c0.942,-2.652 1.782,-5.019 28.887,-19.506c6.064,-3.241 8.54,0.634 14.386,7.265c6.329,7.178 76.001,86.193 79.073,89.756c26.148,30.327 30.797,31.287 27.677,45.632c-4.426,20.352 -2.536,22.2 -11.864,28.337c-4.515,2.97 -45.565,18.503 -55.423,7.53c-6.45,-7.179 6.98,-50.374 7.512,-65.322c0.169,-4.751 -20.963,-26.577 -28.02,-35.173c-4.937,-6.013 1.016,-10.093 -1.822,-16.634c-8.297,-19.123 -30.808,-12.089 -30.338,1.098c0.334,9.36 40.483,47.04 42.647,53.883c1.768,5.589 -8.893,56.747 -8.97,57.082c-5.017,21.918 -23.98,17.289 -62.446,10.624Z" style="fill:#eaeaea;fill-opacity:1;"/><path d="M616.344,382.369c9.107,0.949 9.519,0.41 42.249,-19.115c15.555,-9.279 17.098,-9.2 20.114,-5.478c4.622,5.705 5.216,7.56 2.813,28.957c-3.846,34.246 -24.633,27.943 -36.544,26.403c-11.594,-1.499 -56.171,-8.069 -58.596,-9.12c-10.453,-4.527 -40.538,-49.811 -53.609,-51.615c-20.004,-2.761 -25.336,23.455 1.134,26.21c10.377,1.08 11.086,5.611 25.958,21.352c7.597,8.041 10.366,14.758 20.554,16.418c31.809,5.182 31.776,4.906 63.623,10.173c20.435,3.38 7.594,18.347 2.107,25.773c-17.029,23.045 -30.727,22.38 -34.014,22.22c-0.746,-0.036 -27.597,-3.766 -29.619,-4.441c-10.223,-3.415 -13.878,-10.77 -28.763,-26.842c-7.569,-8.173 -7.078,-8.598 -92.264,-104.315c-4.091,-4.597 0.5,-6.214 22.376,-18.714c9.369,-5.354 10.22,-4.649 57.498,3.404c17.15,2.921 15.873,6.388 37.491,29.701c17.926,19.331 19.868,27.214 37.493,29.029Z" style="fill:#eaeaea;fill-opacity:1;"/><path d="M269.396,407.381c34.806,3.467 35.199,0.742 55.395,7.427c21.274,7.042 31.516,-19.815 10.819,-24.36c-11.749,-2.58 -12.652,6.049 -30.879,5.003c-38.304,-2.198 -40.456,-3.684 -43.374,-5.699c-0.091,-0.063 -32.211,-31.189 -31.93,-43.499c0.174,-7.63 2.89,-6.957 5.421,-23.129c1.768,-11.3 2.01,-13.931 13.453,-13.697c17.781,0.363 18.003,2.048 25.833,11.292c23.438,27.671 24.599,28.03 27.626,28.966c6.07,1.877 76.901,6.998 83.063,12.226c4.123,3.498 1.775,9.834 -3.154,41.233c-2.728,17.377 -3.408,17.988 -17.467,28.132c-33.416,24.111 -33.829,24.157 -37.416,24.555c-0.606,0.067 -50.8,-0.876 -55.68,-3.921c-1.64,-1.024 -22.368,-20.314 -22.379,-31.81c-0.001,-1.139 1.948,-17.452 4.798,-17.802c4.468,-0.549 3.699,2.926 13.742,4.786c1.125,0.208 1.065,0.113 2.128,0.299Z" style="fill:#eaeaea;fill-opacity:1;"/><path d="M557.141,312.405c-3.366,-0.46 -56.663,-8.741 -60.073,-9.515c-9.994,-2.268 -1.812,-21.844 7.08,-64.638c2.241,-10.784 -1.569,-10.316 -13.861,-24.243c-17.284,-19.585 -20.179,-20.689 -18.055,-26.926c5.578,-16.381 12.102,-16.849 13.864,-16.976c1.834,-0.132 32.103,4.388 33.908,4.755c17.987,3.666 42.983,37.698 44.147,42.471c0.617,2.529 0.583,2.676 -7.489,31.194c-4.356,15.391 -14.971,13.001 -15.349,21.555c-0.816,18.479 34.766,20.222 30.989,-1.796c-1.881,-10.964 0.544,-10.739 8.132,-37.794c3.541,-12.624 -2.941,-13.79 -0.019,-17.108c0.703,-0.798 0.927,-1.053 13.429,0.183c26.521,2.621 38.225,28.711 38.249,29.443c0.064,1.933 -5.601,21.173 -5.99,22.247c-6.635,18.323 -4.162,21.305 -17.374,27.036c-38.635,16.758 -37.795,19.932 -51.588,20.112Z" style="fill:#eaeaea;fill-opacity:1;"/><path d="M323.173,298.459c17.274,2.504 14.244,9.004 22.74,13.278c1.565,0.787 14.792,7.441 21.054,-4.191c1.458,-2.709 3.153,-18.065 -18.729,-19.566c-22.138,-1.519 -24.051,1.607 -33.982,-9.239c-3.563,-3.891 -41.178,-44.973 -43.188,-49.845c-1.062,-2.573 2.602,-15.213 17.344,-16.577c9.533,-0.882 27.627,-0.209 32.085,2.415c8.864,5.217 74.989,83.788 100.881,111.969c7.391,8.044 0.906,8.708 -8.231,14.05c-12.165,7.113 -12.061,9.548 -26.157,7.139c-68.39,-11.688 -72.309,-5.844 -82.91,-17.596c-25.849,-28.657 -24.313,-33.742 -42.566,-34.319c-18.062,-0.572 -25.009,1.134 -21.186,-8.345c2.668,-6.616 20.146,-42.804 27.565,-38.234c6.412,3.95 36.604,45.614 45.334,47.974c1.881,0.508 9.146,1.031 9.943,1.088Z" style="fill:#eaeaea;fill-opacity:1;"/><path d="M456.883,166.446c4.973,2.373 3.197,3.832 1.624,9.085c-5.192,17.332 -8.104,18.767 -1.12,26.06c2.388,2.494 24.179,25.25 28.264,32.629c2.582,4.663 -1.166,4.726 -10.998,64.611c-1.498,9.122 -4.342,8.691 -21.451,18.832c-8.644,5.124 -9.894,1.12 -21.957,-12.594c-5.72,-6.503 -59.521,-67.67 -71.847,-80.971c-18.024,-19.451 -18.11,-21.152 -18.228,-23.504c-0.109,-2.164 4.809,-25.847 15.873,-29.756c13.946,-4.927 18.731,0.144 19.843,1.322c0.681,0.722 41.451,46.243 41.972,46.89c7.675,9.533 5.467,10.758 1.954,22.279c-0.847,2.778 -8.977,18.84 7.076,25.321c12.18,4.917 29.843,-5.36 13.924,-20.997c-6.907,-6.785 -2.981,-8.14 -1.189,-21.615c0.433,-3.257 0.071,-3.649 -34.904,-42.702c-3.493,-3.9 -12.386,-9.493 0.401,-11.517c20.37,-3.225 20.298,-3.524 45.823,-3.642c0.395,-0.002 1.401,-0.007 4.94,0.269Z" style="fill:#eaeaea;fill-opacity:1;"/><path d="M419.529,599.392c7.429,0.954 48.538,6.234 93.228,-0.887c52.264,-8.329 69.062,-19.928 76.067,-15.606c14.139,8.723 23.65,12.03 12.774,16.923c-26.526,11.935 -117.383,36.537 -211.854,18.868c-63.439,-11.865 -108.446,-29.182 -166.181,-74.079c-1.132,-0.881 -12.188,-7.925 -6.653,-10.939c0.095,-0.052 18.556,-5.477 22.395,-4.743c8.542,1.634 42.119,40.031 128.669,61.944c3.357,0.85 32.387,6.927 51.556,8.518Z" style="fill:#eaeaea;fill-opacity:1;"/><path d="M745.344,224.298c0.831,0.361 4.086,-0.662 20.876,33.803c9.657,19.824 32.771,68.66 18.663,143.249c-15.946,84.303 -83.326,142.143 -88.292,142.418c-5.036,0.279 -5.911,-6.039 -9.237,-14.772c-3.121,-8.195 -1.737,-8.766 4.156,-14.834c13.511,-13.913 43.066,-42.557 60.449,-94.835c9.605,-28.886 16.058,-80.35 1.119,-125.603c-13.615,-41.242 -25.616,-48.07 -22.258,-53.36c0.745,-1.174 2.445,-3.852 10.831,-13.554c2.051,-2.373 2.58,-2.154 3.693,-2.512Z" style="fill:#eaeaea;fill-opacity:1;"/><path d="M129.208,385.495c-1.893,-23.347 -7.974,-55.207 11.326,-110.204c21.603,-61.558 71.038,-104.787 78.315,-109.138c5.836,-3.489 11.291,16.349 9.815,19.844c-1.603,3.798 -90.713,77.551 -73.822,195.531c5.356,37.414 17.738,60.165 18.036,60.829c2.588,5.749 -2.561,9.547 -11.905,19.069c-1.584,1.614 -5.384,2.921 -7.039,-0.938c-8.815,-20.553 -17.024,-28.062 -24.726,-74.992Z" style="fill:#eaeaea;fill-opacity:1;"/><path d="M563.763,99.73c18.56,5.901 67.417,19.574 116.344,56.011c6.436,4.793 -2.727,6.329 -14.913,9.362c-13.945,3.47 -12.996,-7.303 -63.181,-29.209c-134.736,-58.812 -256.564,-13.467 -261.526,-13.709c-4.394,-0.215 -23.925,-10.522 -19.447,-14.009c3.136,-2.442 54.837,-20.417 114.892,-22.701c24.431,-0.929 65.291,-2.065 127.831,14.255Z" style="fill:#eaeaea;fill-opacity:1;"/><path d="M324.429,470.219c18.494,1.513 17.409,-4.452 51.747,-28.052c4.176,-2.87 9.488,-7.817 14.722,-2.216c2.43,2.6 28.427,32.441 30.929,35.938c4.985,6.968 -0.632,8.072 -12.528,15.11c-38.992,23.066 -39.409,24.778 -48.416,22.657c-16.484,-3.881 -16.487,-3.529 -33.11,-6.554c-13.989,-2.545 -21.718,-12.568 -36.593,-30.439c-0.399,-0.48 -5.137,-6.171 -1.984,-7.509c2.481,-1.053 24.93,0.729 35.234,1.066Z" style="fill:#eaeaea;fill-opacity:1;"/><path d="M675.467,311.932c-3.639,17.611 2.081,21.279 -9.318,28.182c-45.744,27.704 -47.002,28.429 -50.723,25.597c-3.485,-2.652 -35.688,-37.922 -35.849,-39.797c-0.221,-2.584 -0.391,-4.561 27.168,-16.341c24.251,-10.366 25.351,-12.304 26.55,-14.415c7.243,-12.756 9.762,-40.509 16.872,-34.48c1.532,1.299 21.603,21.731 24.776,28.97c2.869,6.545 2.895,6.793 0.524,22.283Z" style="fill:#eaeaea;fill-opacity:1;"/><path d="M219.051,102.614c3.714,0.558 7.518,1.129 44.779,14.898c2.101,0.777 12.717,6.645 11.914,2.07c-0.31,-1.764 -30.014,-29.388 -27.628,-33.828c0.312,-0.581 10.961,-8.894 15.384,-6.765c2.46,1.184 50.115,54.323 50.259,56.707c0.058,0.971 -8.217,11.695 -19.963,8.182c-3.138,-0.939 -14.213,-4.251 -38.75,-13.369c-7.082,-2.632 -16.313,-7.571 -14.043,-2.612c0.639,1.397 30.515,30.461 28.143,33.972c-0.077,0.114 -10.322,10.565 -16.34,6.043c-1.587,-1.192 -48.508,-53.511 -48.49,-55.923c0.019,-2.641 6.819,-7.462 14.736,-9.375Z" style="fill:#eaeaea;fill-opacity:1;"/><path d="M639.166,591.084c-25.931,-16.964 -33.779,-18.802 -29.096,-22.826c1.172,-1.007 49.146,-29.373 49.895,-29.729c7.68,-3.649 8.003,-0.006 10.834,7.106c29.986,75.335 30.79,74.971 33.338,81.539c0.949,2.445 -1.907,4.201 -3.666,2.889c-4.666,-3.479 -14.356,-10.704 -61.305,-38.98Z" style="fill:#eaeaea;fill-opacity:1;"/><path d="M215.24,499.297c5.489,6.579 11.248,11.234 4.899,13.763c-9.919,3.951 -90.889,23.652 -103.075,28.864c-0.392,0.168 -10.084,3.016 -2.493,-4.881c5.413,-5.632 61.091,-63.556 68.5,-69.567c4.4,-3.57 9.807,4.745 13.034,8.858c9.273,11.822 9.402,11.574 19.135,22.962Z" style="fill:#eaeaea;fill-opacity:1;"/><path d="M710.318,170.843c50.789,-13.607 64.103,-18.384 69.553,-20.339c3.761,-1.349 5.619,1.418 3.698,3.008c-18.016,14.911 -63.912,71.544 -69.943,70.53c-3.062,-0.515 -14.543,-18.439 -29.479,-31.38c-5.091,-4.411 -11.687,-10.541 -7.504,-12.032c6.565,-2.339 25.796,-7.301 33.673,-9.786Z" style="fill:#eaeaea;fill-opacity:1;"/></g><path d="M415.889,0.67c-100.695,9.888 -178.587,35.314 -245.986,80.516c-64.978,43.386 -115.83,103.52 -141.659,167.69c-36.121,89.395 -37.735,196.143 -4.036,292.601c50.852,145.695 176.973,245.785 346.681,275.045c40.762,7.063 68.206,8.879 114.417,7.668c53.475,-1.211 83.543,-5.852 130.964,-19.978c98.677,-29.058 186.861,-93.229 239.529,-174.148c45.202,-69.417 67.803,-157.399 61.547,-240.74c-5.448,-72.444 -8.475,-91.614 -20.179,-124.507c-47.22,-132.578 -186.861,-232.87 -362.22,-259.507c-25.022,-3.834 -98.273,-6.659 -119.058,-4.641Zm120.067,26.031c114.619,18.161 211.681,67.399 276.054,140.448c123.296,139.439 103.722,323.475 -46.614,438.094c-63.363,48.43 -147.511,81.121 -238.52,92.623c-25.83,3.229 -96.861,3.229 -123.094,0c-161.637,-20.179 -288.363,-101.099 -346.278,-221.166c-38.341,-79.305 -37.735,-163.049 1.413,-242.152c28.049,-56.502 80.112,-110.785 142.668,-148.318c55.493,-33.094 120.067,-53.274 203.206,-63.363c17.758,-2.018 110.785,0.605 131.166,3.834Z" style="fill:#eaeaea;fill-rule:nonzero;"/></svg>